<svg xmlns="http://www.w3.org/2000/svg" xmlns:xlink="http://www.w3.org/1999/xlink" viewBox="0 0 360 40"><defs><style>.cls-1,.cls-4,.cls-5{fill:none;}.cls-1{stroke:#666;stroke-miterlimit:10;stroke-width:2.11px;}.cls-2{clip-path:url(#clip-path);}.cls-3{fill:#eee;}.cls-4{stroke:#ccc;}.cls-5{stroke:#333;stroke-width:1.74px;}.cls-6{font-size:10px;font-family:MicrosoftJhengHeiRegular, Microsoft JhengHei;}.cls-7{clip-path:url(#clip-path-2);}</style><clipPath id="clip-path"><rect class="cls-1" x="557.61" y="-1004.48" width="473.43" height="493" rx="5.05" ry="5.05"/></clipPath><clipPath id="clip-path-2"><rect class="cls-1" x="-1542.6" y="-1004.48" width="473.43" height="493" rx="5.05" ry="5.05"/></clipPath></defs><title>StraightChart02</title><g id="V5-水質"><rect class="cls-1" x="557.61" y="-1004.48" width="473.43" height="493" rx="5.05" ry="5.05"/></g><g id="圖層_14" data-name="圖層 14"><rect class="cls-3" x="7.46" y="2.64" width="344.05" height="20"/><line class="cls-4" x1="7.46" y1="22.64" x2="7.46" y2="27.15"/><line class="cls-4" x1="41.88" y1="22.64" x2="41.88" y2="27.15"/><line class="cls-4" x1="179.52" y1="22.64" x2="179.52" y2="27.15"/><line class="cls-4" x1="145.11" y1="22.64" x2="145.11" y2="27.15"/><line class="cls-4" x1="110.7" y1="22.64" x2="110.7" y2="27.15"/><line class="cls-4" x1="76.29" y1="22.64" x2="76.29" y2="27.15"/><line class="cls-4" x1="282.76" y1="22.64" x2="282.76" y2="27.15"/><line class="cls-4" x1="248.35" y1="22.64" x2="248.35" y2="27.15"/><line class="cls-4" x1="317.17" y1="22.64" x2="317.17" y2="27.15"/><line class="cls-4" x1="213.93" y1="22.64" x2="213.93" y2="27.15"/><line class="cls-5" x1="282.76" y1="5.02" x2="282.76" y2="19.52"/><line class="cls-4" x1="351.58" y1="22.64" x2="351.58" y2="27.15"/><text class="cls-6" transform="translate(4.8 36.75)">0</text><text class="cls-6" transform="translate(36.08 36.75)">10</text><text class="cls-6" transform="translate(276.96 36.75)">80</text><text class="cls-6" transform="translate(311.37 36.75)">90</text><text class="cls-6" transform="translate(70.49 37.13)">20</text><text class="cls-6" transform="translate(104.9 37.13)">30</text><text class="cls-6" transform="translate(139.31 37.13)">40</text><text class="cls-6" transform="translate(173.73 37.13)">50</text><text class="cls-6" transform="translate(208.14 37.13)">60</text><text class="cls-6" transform="translate(242.55 37.13)">70</text><text class="cls-6" transform="translate(342.82 36.75)">100</text></g><g id="圖層_10" data-name="圖層 10"><rect class="cls-1" x="-1542.6" y="-1004.48" width="473.43" height="493" rx="5.05" ry="5.05"/></g></svg>