<svg xmlns="http://www.w3.org/2000/svg" xmlns:xlink="http://www.w3.org/1999/xlink" viewBox="0 0 360 40"><defs><style>.cls-1,.cls-4,.cls-5{fill:none;}.cls-1{stroke:#666;stroke-miterlimit:10;stroke-width:2.11px;}.cls-2{clip-path:url(#clip-path);}.cls-3{fill:#eee;}.cls-4{stroke:#ccc;}.cls-5{stroke:#333;stroke-width:1.74px;}.cls-6{font-size:10px;font-family:MicrosoftJhengHeiRegular, Microsoft JhengHei;}.cls-7{clip-path:url(#clip-path-2);}</style><clipPath id="clip-path"><rect class="cls-1" x="557.61" y="-1099.48" width="473.43" height="493" rx="5.05" ry="5.05"/></clipPath><clipPath id="clip-path-2"><rect class="cls-1" x="-1542.6" y="-1099.48" width="473.43" height="493" rx="5.05" ry="5.05"/></clipPath></defs><title>StraightChart04</title><g id="V5-水質"><rect class="cls-1" x="557.61" y="-1099.48" width="473.43" height="493" rx="5.05" ry="5.05"/></g><g id="圖層_14" data-name="圖層 14"><rect class="cls-3" x="7.46" y="2.64" width="344.05" height="20"/><line class="cls-4" x1="7.46" y1="21.59" x2="7.46" y2="26.1"/><line class="cls-4" x1="93.49" y1="21.59" x2="93.49" y2="26.1"/><line class="cls-4" x1="179.52" y1="21.59" x2="179.52" y2="26.1"/><line class="cls-4" x1="308.57" y1="21.59" x2="308.57" y2="26.1"/><line class="cls-4" x1="265.55" y1="21.59" x2="265.55" y2="26.1"/><line class="cls-5" x1="170.8" y1="5.02" x2="170.8" y2="19.52"/><line class="cls-4" x1="351.58" y1="21.59" x2="351.58" y2="26.1"/><text class="cls-6" transform="translate(4.8 36.75)">0</text><text class="cls-6" transform="translate(87.85 36.75)">20</text><line class="cls-4" x1="50.48" y1="21.59" x2="50.48" y2="26.1"/><text class="cls-6" transform="translate(44.88 36.75)">10</text><line class="cls-4" x1="136.51" y1="21.59" x2="136.51" y2="26.1"/><text class="cls-6" transform="translate(130.83 36.75)">30</text><line class="cls-4" x1="222.54" y1="21.59" x2="222.54" y2="26.1"/><text class="cls-6" transform="translate(216.78 36.75)">50</text><text class="cls-6" transform="translate(173.81 36.75)">40</text><text class="cls-6" transform="translate(259.76 36.75)">60</text><text class="cls-6" transform="translate(302.74 36.75)">70</text><text class="cls-6" transform="translate(345.72 36.75)">80</text></g><g id="圖層_10" data-name="圖層 10"><rect class="cls-1" x="-1542.6" y="-1099.48" width="473.43" height="493" rx="5.05" ry="5.05"/></g></svg>